<?xml version="1.0" encoding="utf-8"?>
<!-- Generator: Adobe Illustrator 24.1.1, SVG Export Plug-In . SVG Version: 6.00 Build 0)  -->
<svg version="1.1" id="Layer_1" xmlns="http://www.w3.org/2000/svg" xmlns:xlink="http://www.w3.org/1999/xlink" x="0px" y="0px"
	 viewBox="0 0 1008 161" style="enable-background:new 0 0 1008 161;" xml:space="preserve">
<style type="text/css">
	.st0{fill:#6B7781;}
	.st1{fill:#D4E0EE;}
</style>
<g>
	<path class="st0" d="M244.6,5h-79.5L157,19.1h86.4c3.8,0,6.8,3.2,6.4,7.1l-9.5,108.6c-0.3,3.8-3.8,7.1-7.7,7.1H86L77.9,156h153.5
		c11.6,0,22-9.5,23-21.2l9.5-108.6C265,14.5,256.3,5,244.6,5z"/>
	<path class="st0" d="M117.7,40H53.2c-3.9,0-7.1-3.2-7.1-7.1c0-3.9,3.2-7.1,7.1-7.1h64.5C126.8,25.8,126.8,40.1,117.7,40z"/>
	<path class="st0" d="M70.7,135.1H34.6c-9.1,0.1-9.2-14.2,0-14.1c0,0,36.1,0,36.1,0C79.8,120.9,79.9,135.2,70.7,135.1z"/>
	<path class="st0" d="M70.7,87.6c0,0-60.8,0-60.8,0c-9.1,0.1-9.2-14.2,0-14.1c0,0,60.8,0,60.8,0C79.8,73.3,79.9,87.7,70.7,87.6z"/>
	<g>
		<path class="st0" d="M386.2,100c-0.7,7.6-2.4,14.4-5.1,20.5c-2.8,6.1-6.4,11.3-11,15.7c-4.6,4.3-10,7.7-16.4,10
			c-6.3,2.3-13.4,3.5-21.2,3.5c-3.2,0-6.6-0.2-10.1-0.4c-3.5-0.3-7-0.7-10.3-1.2c-3.4-0.5-6.6-1-9.7-1.7c-3.1-0.7-5.8-1.4-8.1-2.1
			L305.8,12L333,7.6l-4.1,47.2c3.1-1.3,6.3-2.3,9.6-3.1c3.3-0.7,6.8-1.1,10.5-1.1c6.7,0,12.6,1.2,17.5,3.5c5,2.3,9,5.7,12.1,10
			c3.1,4.3,5.3,9.5,6.6,15.6C386.5,85.8,386.8,92.5,386.2,100z M358.9,99.3c1.5-17.3-4.1-25.9-16.8-25.9c-2.8,0-5.5,0.4-8.3,1.1
			c-2.8,0.7-5,1.6-6.8,2.7l-4.3,48.8c1.3,0.2,3,0.5,5,0.6c2,0.2,4.2,0.3,6.6,0.3c7.3,0,13.1-2.5,17.2-7.6
			C355.7,114.2,358.1,107.5,358.9,99.3z"/>
		<path class="st0" d="M491.8,99.8c-0.7,7.4-2.3,14.3-5,20.4c-2.7,6.2-6.3,11.5-10.7,15.8c-4.5,4.4-9.7,7.8-15.6,10.2
			c-5.9,2.4-12.4,3.6-19.5,3.6c-7,0-13.2-1.2-18.7-3.6c-5.5-2.4-10.1-5.8-13.8-10.2c-3.7-4.4-6.4-9.7-8.2-15.8
			c-1.7-6.2-2.3-13-1.6-20.4c0.7-7.4,2.4-14.2,5.3-20.3c2.9-6.1,6.6-11.3,11.1-15.7c4.5-4.3,9.7-7.7,15.6-10.1
			c5.9-2.4,12.2-3.6,18.9-3.6c6.8,0,13,1.2,18.5,3.6c5.5,2.4,10.1,5.8,13.8,10.1c3.7,4.3,6.4,9.5,8.2,15.7
			C491.9,85.6,492.5,92.4,491.8,99.8z M464.5,99.8c0.7-8.3-0.4-14.8-3.2-19.5c-2.9-4.7-7.4-7.1-13.5-7.1s-11.1,2.4-14.8,7.1
			c-3.8,4.7-6,11.3-6.7,19.5c-0.7,8.3,0.4,14.9,3.3,19.7c2.9,4.9,7.5,7.3,13.6,7.3s11-2.4,14.8-7.3
			C461.5,114.7,463.8,108.1,464.5,99.8z"/>
		<path class="st0" d="M542.4,149.1c-7.8-0.1-14-1-18.8-2.5c-4.7-1.6-8.4-3.7-10.9-6.6c-2.6-2.8-4.2-6.2-4.9-10.3
			c-0.7-4-0.8-8.6-0.3-13.6L516.6,12l27.2-4.3l-9,103.1c-0.2,2.4-0.2,4.6,0,6.5c0.2,1.9,0.7,3.5,1.6,4.9c0.9,1.3,2.3,2.4,4.1,3.2
			c1.8,0.8,4.4,1.4,7.6,1.6L542.4,149.1z"/>
		<path class="st0" d="M557.6,100.7c0.7-8.4,2.7-15.8,5.8-22.1c3.1-6.3,7-11.5,11.5-15.8c4.6-4.2,9.7-7.4,15.3-9.5
			c5.6-2.2,11.4-3.2,17.1-3.2c13.4,0,23.7,4.1,30.8,12.3c7.1,8.2,9.9,20.3,8.5,36.3c-0.1,1.6-0.3,3.3-0.6,5.1
			c-0.3,1.9-0.5,3.5-0.8,5h-60.8c0.1,5.5,2.3,9.9,6.6,13.1c4.3,3.2,10.3,4.9,17.9,4.9c4.9,0,9.8-0.4,14.6-1.3
			c4.8-0.9,8.8-2,11.9-3.3l1.7,21.8c-1.5,0.7-3.5,1.4-5.9,2.2c-2.5,0.7-5.2,1.4-8.2,1.9c-3,0.5-6.2,1-9.6,1.3
			c-3.4,0.4-6.8,0.5-10.1,0.5c-8.5,0-15.8-1.3-21.9-3.8c-6.1-2.5-11-6-14.8-10.3c-3.8-4.4-6.4-9.6-7.8-15.6
			C557.5,114.1,557,107.7,557.6,100.7z M621.5,90.4c0.1-2.3-0.1-4.5-0.6-6.7c-0.5-2.2-1.3-4.1-2.6-5.8c-1.2-1.7-2.9-3.1-4.9-4.1
			c-2-1.1-4.6-1.6-7.7-1.6c-3,0-5.6,0.5-7.9,1.5c-2.2,1-4.2,2.4-5.8,4c-1.6,1.7-2.9,3.6-3.8,5.9c-1,2.2-1.7,4.5-2.3,6.8H621.5z"/>
		<path class="st0" d="M669,29.1l27.2-4.3l-2.4,27.9H726l-2,22.3h-32.2l-2.9,33.3c-0.5,5.6,0.1,10.1,1.8,13.5c1.7,3.4,5.5,5,11.5,5
			c2.9,0,5.9-0.3,9-0.8c3.1-0.5,6-1.3,8.6-2.3l2,20.9c-3.4,1.3-7.1,2.5-11.1,3.4c-4,1-8.9,1.4-14.7,1.4c-7.3,0-13.3-1-17.9-3
			c-4.6-2-8.2-4.7-10.8-8.3c-2.6-3.5-4.2-7.8-4.9-12.9c-0.7-5-0.8-10.6-0.2-16.7L669,29.1z"/>
		<path class="st0" d="M774.8,50.1c7.9,0,14.4,0.9,19.6,2.7c5.1,1.8,9.1,4.4,12,7.7c2.9,3.4,4.8,7.4,5.7,12.2
			c0.9,4.8,1.1,10.1,0.6,16l-4.9,55.8c-3.9,0.8-9.3,1.8-16.3,3c-6.9,1.1-15.3,1.7-25,1.7c-6.1,0-11.6-0.5-16.5-1.6
			c-4.9-1.1-9-2.8-12.4-5.3c-3.4-2.5-5.9-5.7-7.4-9.6c-1.6-4-2.1-8.8-1.6-14.6c0.5-5.5,2-10.2,4.6-14c2.6-3.8,5.8-6.9,9.7-9.2
			c3.9-2.3,8.3-3.9,13.2-5c4.9-1,9.9-1.5,15.1-1.5c3.5,0,6.6,0.2,9.2,0.5c2.7,0.3,4.8,0.7,6.5,1.2l0.2-2.5c0.4-4.6-0.7-8.2-3.2-11
			c-2.5-2.8-7.2-4.1-14-4.1c-4.6,0-9.1,0.3-13.6,1c-4.5,0.7-8.4,1.6-11.8,2.8l-1.5-21.6c1.6-0.5,3.6-1,6-1.5c2.4-0.5,5-1,7.8-1.4
			c2.8-0.4,5.7-0.8,8.8-1.1C768.6,50.3,771.7,50.1,774.8,50.1z M770.1,128.6c2.6,0,5.2-0.1,7.6-0.2c2.4-0.1,4.3-0.3,5.8-0.5
			l1.8-20.3c-1.1-0.2-2.7-0.5-4.8-0.7c-2.1-0.2-4.1-0.4-5.9-0.4c-2.5,0-4.9,0.2-7.1,0.4c-2.2,0.3-4.2,0.9-6,1.7
			c-1.8,0.8-3.2,2-4.3,3.4c-1.1,1.4-1.7,3.2-1.9,5.4c-0.4,4.2,0.8,7.1,3.5,8.7C761.4,127.8,765.2,128.6,770.1,128.6z"/>
		<path class="st0" d="M906.1,70.6c-2.4,2.4-5.6,5.6-9.6,9.7c-4,4.1-8.4,8.6-13,13.5c-4.6,4.9-9.3,10.1-14.1,15.5
			c-4.7,5.4-9.1,10.6-13,15.7h45.8l-2,22.3H822l1.4-15.8c2.9-4.3,6.3-9,10.3-14c4-5,8.1-10,12.5-15c4.3-5,8.6-9.9,12.9-14.7
			c4.3-4.7,8.2-9,11.7-12.9h-40.3l2-22.3h75.2L906.1,70.6z"/>
		<path class="st0" d="M1004.7,99.8c-0.7,7.4-2.3,14.3-5,20.4c-2.7,6.2-6.3,11.5-10.7,15.8c-4.5,4.4-9.7,7.8-15.6,10.2
			c-5.9,2.4-12.4,3.6-19.5,3.6c-7,0-13.2-1.2-18.7-3.6c-5.5-2.4-10.1-5.8-13.8-10.2c-3.7-4.4-6.4-9.7-8.2-15.8
			c-1.7-6.2-2.3-13-1.6-20.4c0.7-7.4,2.4-14.2,5.3-20.3c2.9-6.1,6.6-11.3,11.1-15.7c4.5-4.3,9.7-7.7,15.6-10.1
			c5.9-2.4,12.2-3.6,18.9-3.6c6.8,0,13,1.2,18.5,3.6c5.5,2.4,10.1,5.8,13.8,10.1c3.7,4.3,6.4,9.5,8.2,15.7
			C1004.8,85.6,1005.3,92.4,1004.7,99.8z M977.3,99.8c0.7-8.3-0.4-14.8-3.2-19.5c-2.9-4.7-7.4-7.1-13.5-7.1
			c-6.1,0-11.1,2.4-14.8,7.1c-3.8,4.7-6,11.3-6.7,19.5c-0.7,8.3,0.4,14.9,3.3,19.7c2.9,4.9,7.5,7.3,13.6,7.3c6.1,0,11-2.4,14.8-7.3
			C974.4,114.7,976.6,108.1,977.3,99.8z"/>
	</g>
	<path class="st0" d="M205.5,33.3h-56.7l-54.7,94.4h103.2c11.4-24.4,30.4-27.9,30.4-27.9l3.4-38.5C209.4,55.9,205.5,33.3,205.5,33.3
		z M161.3,70.7c0.3,0.6,0.7,1.1,1.4,1.5c0.7,0.4,1.5,0.9,2.4,1.3c1,0.4,2.2,0.9,3.5,1.4c2.1,0.8,4,1.7,5.8,2.6
		c1.8,0.9,3.3,2,4.5,3.2c1.3,1.2,2.2,2.6,2.8,4.3c0.6,1.6,0.8,3.5,0.6,5.7c-0.1,1.5-0.5,2.9-1.1,4.4c-0.6,1.5-1.4,2.8-2.6,4
		c-1.1,1.2-2.6,2.3-4.3,3.2c-1.7,0.9-3.8,1.5-6.3,1.9l-0.8,9h-9.3l0.8-8.8c-3.6-0.3-6.5-0.9-8.6-1.7c-2.2-0.8-3.8-1.5-4.8-2l3.9-8.5
		c1.7,0.8,3.6,1.6,6,2.3c2.3,0.7,4.8,1,7.5,1c3,0,5.1-0.4,6.3-1.2c1.2-0.8,1.8-2,2-3.4c0.1-0.9-0.1-1.7-0.5-2.4
		c-0.4-0.7-1-1.3-1.8-1.8c-0.8-0.5-1.8-1.1-3-1.6c-1.2-0.5-2.7-1.1-4.3-1.7c-1.6-0.6-3.1-1.2-4.6-2c-1.5-0.7-2.8-1.6-4-2.6
		c-1.2-1-2.1-2.3-2.7-3.8c-0.6-1.5-0.9-3.3-0.7-5.4c0.1-1.6,0.5-3.2,1.1-4.7c0.6-1.5,1.4-2.9,2.5-4.1c1.1-1.2,2.5-2.3,4.1-3.1
		c1.7-0.9,3.6-1.5,5.8-1.9l0.7-8h9.3l-0.7,7.7c2.5,0.2,4.7,0.6,6.5,1.1c1.8,0.5,3.2,1,4.3,1.5l-3.1,8.9c-1.6-0.7-3.4-1.3-5.5-1.8
		c-2.1-0.5-4.3-0.7-6.7-0.7c-2.4,0-4.1,0.4-5.2,1.2c-1.1,0.8-1.7,1.8-1.8,3.1C160.9,69.5,161,70.2,161.3,70.7z"/>
</g>
<rect x="-142" y="-362" class="st1" width="306" height="171"/>
</svg>
